<?xml version="1.0" encoding="UTF-8"?>
<svg id="Layer_2" data-name="Layer 2" xmlns="http://www.w3.org/2000/svg" xmlns:xlink="http://www.w3.org/1999/xlink" viewBox="0 0 519.53 96.01">
  <defs>
    <style>
      .cls-1 {
        fill: #00a676;
        font-family: ScriptMTBold, 'Script MT Bold';
        font-size: 77.15px;
      }

      .cls-2 {
        fill: url(#linear-gradient);
      }

      .cls-2, .cls-3 {
        stroke-width: 0px;
      }

      .cls-3 {
        fill: #1b4079;
      }
    </style>
    <linearGradient id="linear-gradient" x1="0" y1="44.51" x2="91.11" y2="44.51" gradientUnits="userSpaceOnUse">
      <stop offset="0" stop-color="#00a676"/>
      <stop offset="1" stop-color="#1b4079"/>
    </linearGradient>
  </defs>
  <g id="Layer_1-2" data-name="Layer 1">
    <g>
      <g>
        <path class="cls-2" d="m46,48.8c5.18,0,10.27,0,15.35,0,2.49,0,2.95.76,1.84,2.96-.74,1.46-1.44,2.93-2.18,4.39-1.29,2.57-3.28,3.87-6.25,3.79-3.77-.1-7.55.04-11.32-.05-2.07-.05-3.43.74-4.34,2.58-2.93,5.91-5.9,11.8-8.89,17.68-.67,1.32-1.37,2.65-2.22,3.86-1.99,2.82-4.73,4.48-8.19,4.82-3.39.33-6.77.36-10.04-.87C3.38,85.55-.65,79.29.09,72.5c.19-1.75.88-3.52,1.67-5.12,3.63-7.39,7.36-14.72,11.07-22.07,6.01-11.94,12.04-23.88,18.04-35.83C33.77,3.67,38.61.7,44.92.18c3.54-.29,7.12-.16,10.68-.01,2.3.1,4.05,1.31,5.13,3.43,3.27,6.46,6.58,12.9,9.87,19.34.08.15.12.31.21.53-.27.02-.46.04-.66.04-3.83,0-7.66,0-11.5.01-.54,0-.82-.15-1.06-.65-1.44-2.93-2.97-5.82-4.37-8.77-.75-1.58-1.88-2.29-3.6-2.21-.96.05-1.93.05-2.9,0-2.58-.13-4.38,1.06-5.54,3.26-1.29,2.42-2.5,4.88-3.74,7.33-7.75,15.31-15.51,30.62-23.26,45.93-.6,1.2-1.26,2.38-1.7,3.64-1.13,3.21.92,5.81,4.24,5.47,1.29-.13,2.14-.93,2.71-1.99,1.08-1.97,2.1-3.97,3.12-5.98,6.44-12.67,12.85-25.36,19.33-38.01.71-1.38,1.66-2.69,2.7-3.85,1.35-1.49,3.17-2.14,5.2-2.13,13.13,0,26.27,0,39.4,0,.29,0,.59-.03.88.02.84.14,1.3.76.93,1.52-1.26,2.59-2.48,5.22-3.97,7.68-.97,1.59-2.75,2.1-4.6,2.1-6.52.01-13.05.01-19.57.02-2.69,0-5.38.04-8.07-.02-1.73-.03-3.04.65-3.83,2.15-1.51,2.87-2.94,5.78-4.4,8.67-.17.33-.34.67-.54,1.08Z"/>
        <path class="cls-3" d="m77.78,39c.62-.03.93.21,1.2.75,4.52,8.99,9.02,18,13.63,26.94,1.37,2.66,2.3,5.31,2.11,8.35-.33,5.23-4.93,13.39-13.44,13.8-4.7.23-9.42.25-14.12.09-3.97-.14-6.98-2.1-8.78-5.74-2.36-4.76-4.72-9.51-7.08-14.27-.11-.23-.19-.47-.32-.79.27-.03.46-.07.64-.07,2.81,0,5.61,0,8.42,0,1.98-.01,3.41.82,4.27,2.63.67,1.39,1.37,2.77,2.08,4.15,1.01,1.94,2.55,2.93,4.81,2.85,2.22-.08,4.44,0,6.67-.03.66-.01,1.35-.1,1.97-.32,2.12-.77,3.13-2.74,2.55-4.92-.17-.64-.44-1.27-.74-1.86-5.12-10.16-10.25-20.32-15.37-30.47-.15-.31-.3-.62-.51-1.08"/>
      </g>
      <text class="cls-1" transform="translate(111.13 76.57)"><tspan x="0" y="0">AmalgaFlow</tspan></text>
    </g>
  </g>
</svg>